{"title":"Grave of the Fireflies 1988 DVDrip English subs Klam","uid":9606124,"size":1890266285,"categoryP":"video","categoryS":"movies","magnet":"?xt=urn:btih:4d5949425ddb8f43c7a8cb966eb9254c37b4c415&amp;dn=Grave+of+the+Fireflies+1988+DVDrip+English+subs+Klam&amp;tr=udp%3A%2F%2Ftracker.openbittorrent.com%3A80&amp;tr=udp%3A%2F%2Fopen.demonii.com%3A1337&amp;tr=udp%3A%2F%2Ftracker.coppersurfer.tk%3A6969&amp;tr=udp%3A%2F%2Fexodus.desync.com%3A6969","seeders":2,"leechers":0,"uploader":"Klambake","files":-1,"time":1392222717,"description":"[img] http://i402.photobucket.com/albums/pp102/OmkePom/4443_zps1de2685c.jpg[/img]\n\nWith the voices of Tsutomu Tatsumi, Ayano Shiraishi and Yoshiko Shinohara\n\nSeita en Setsuko zijn broer en zus tijdens de Tweede Wereldoorlog in Japan. Nadat hun vader is gestorven tijdens een overzees gevecht en hun moeder is gedood door een luchtaanval, moeten ze naar andere familieleden toe om gesteund te worden. Als die steun op een gegeven moment ook bij hen weggenomen wordt zijn ze alleen nog afhankelijk van elkaar om te zorgen voor onderdak en eten.\n\nA tragic film covering a young boy and his little sister's struggle to survive in Japan during World War II.\n &lt;a href=&quot;\nhttp://www.imdb.com/title/tt0095327&quot; rel=&quot;nofollow&quot; target=&quot;_NEW&quot;&gt;\nhttp://www.imdb.com/title/tt0095327&lt;/a&gt;\t\n\n--------------------- Dutch Friends 4ever ---------------------\n---------------------------------------------------------------\n- Bezoek ook eens mijn vrienden op: &lt;a href=&quot; http://www.Film-Test.nl&quot; rel=&quot;nofollow&quot; target=&quot;_NEW&quot;&gt; http://www.Film-Test.nl&lt;/a&gt; --\n----- voor mijn Nederlandse Sync. ondertitels ---- en meer ----\n------- http://www.Film-Test.nl ---- Over Films en meer -------\n---------------------------------------------------------------\n\nGeneral:\n\nComplete name                    : Grave of the FirefliesGrave of the Fireflies.avi\nFormat                           : AVI\nFormat/Info                      : Audio Video Interleave\nFile size                        : 1.76 GiB\nDuration                         : 1h 28mn\nOverall bit rate                 : 2 855 Kbps\n\nVideo:\n\nFormat                           : MPEG-4 Visual\nFormat profile                   : Simple@L3\nFormat settings, BVOP            : No\nFormat settings, QPel            : No\nFormat settings, GMC             : No warppoints\nFormat settings, Matrix          : Default (H.263)\nCodec ID                         : XVID\nCodec ID/Hint                    : XviD\nDuration                         : 1h 28mn\nBit rate                         : 2 397 Kbps\nWidth                            : 704 pixels\nHeight                           : 396 pixels\nDisplay aspect ratio             : 16:9\nFrame rate                       : 25.000 fps\nColor space                      : YUV\nChroma subsampling               : 4:2:0\nBit depth                        : 8 bits\nScan type                        : Progressive\nCompression mode                 : Lossy\nBits/(Pixel*Frame)               : 0.344\nStream size                      : 1.48 GiB (84%)\nWriting library                  : XviD 1.1.2 (UTC 2006-11-01)\n\nAudio:\n\nFormat                           : AC-3\nFormat/Info                      : Audio Coding 3\nMode extension                   : CM (complete main)\nCodec ID                         : 2000\nDuration                         : 1h 28mn\nBit rate mode                    : Constant\nBit rate                         : 448 Kbps\nChannel(s)                       : 6 channels\nChannel positions                : Front: L C R, Side: L R, LFE\nSampling rate                    : 48.0 KHz\nBit depth                        : 16 bits\nCompression mode                 : Lossy\nStream size                      : 283 MiB (16%)\nAlignment                        : Aligned on interleaves\nInterleave, duration             : 32 ms (0.80 video frame)\nInterleave, preload duration     : 512 ms\n\n","torrent":{"xt":"urn:btih:4d5949425ddb8f43c7a8cb966eb9254c37b4c415","amp;dn":"Grave+of+the+Fireflies+1988+DVDrip+English+subs+Klam","amp;tr":["udp%3A%2F%2Ftracker.openbittorrent.com%3A80","udp%3A%2F%2Fopen.demonii.com%3A1337","udp%3A%2F%2Ftracker.coppersurfer.tk%3A6969","udp%3A%2F%2Fexodus.desync.com%3A6969"],"infoHash":"4d5949425ddb8f43c7a8cb966eb9254c37b4c415","infoHashBuffer":{"type":"Buffer","data":[77,89,73,66,93,219,143,67,199,168,203,150,110,185,37,76,55,180,196,21]},"announce":[],"urlList":[]}}